# Blender v2.93.1 OBJ File: ''
# www.blender.org
mtllib utensil_butter_knife.mtl
o utensil_butter_knife_Cube.024
v -0.072848 -2.444323 0.017375
v 0.071771 -2.444323 0.017375
v -0.166194 -2.397226 0.017375
v -0.209541 -2.081332 0.017375
v -0.203202 -2.277456 0.017375
v 0.208464 -2.081332 0.017375
v 0.165117 -2.397226 0.017375
v 0.202126 -2.277456 0.017375
v -0.180476 -1.749767 0.017375
v 0.179640 -1.749767 0.017375
v -0.151708 -1.224859 0.017375
v -0.125006 -0.733012 0.017375
v -0.105748 -0.294087 0.017375
v 0.151104 -1.224859 0.017375
v 0.138105 -0.733012 0.017375
v 0.130428 -0.294087 0.017375
v -0.000538 -2.444498 0.017375
v -0.000538 -2.397024 0.017375
v -0.000538 -2.274777 0.017375
v -0.000538 -2.079937 0.017375
v -0.000418 -1.749767 0.017375
v -0.000302 -1.224859 0.017375
v -0.000178 -0.733012 0.017375
v -0.000178 -0.294087 0.017375
v -0.000178 -0.199619 0.017375
v -0.105748 -0.199619 0.017375
v 0.172371 -0.199619 0.017375
v -0.000178 1.399558 0.017375
v -0.105748 1.399558 0.017375
v 0.063400 1.399558 0.017375
v -0.000178 1.855436 0.017375
v -0.105748 1.855436 0.017375
v 0.057505 1.855436 0.017375
v -0.005765 2.157492 0.012751
v 0.027645 2.012381 0.017375
v -0.178337 -1.224859 0.000000
v -0.211535 -1.749767 0.000000
v -0.125229 -0.293292 0.000000
v -0.147542 -0.749194 0.000000
v 0.144442 -0.293292 0.000000
v -0.086693 -2.498768 0.000000
v -0.002912 -2.498946 0.000000
v 0.080869 -2.498768 0.000000
v -0.194847 -2.450617 0.000000
v -0.237727 -2.328170 0.000000
v 0.205712 -1.749767 0.000000
v 0.172513 -1.224859 0.000000
v 0.189024 -2.450617 0.000000
v -0.245071 -2.127660 0.000000
v 0.155174 -0.749194 0.000000
v 0.231903 -2.328170 0.000000
v 0.239248 -2.127660 0.000000
v -0.125229 -0.197954 0.000000
v 0.213289 -0.197954 0.000000
v -0.125229 1.399558 -0.000000
v 0.104318 1.399558 -0.000000
v -0.125229 1.855436 -0.000000
v 0.091557 1.855436 -0.000000
v -0.006674 2.209053 -0.000000
v 0.048434 2.042254 -0.000000
v -0.075641 2.130004 0.008795
v -0.105748 2.048922 0.013346
v -0.125229 2.155190 -0.000000
v -0.092817 2.217034 -0.000000
v 0.093007 -0.043184 0.017375
v -0.000178 -0.043184 0.017375
v -0.105748 -0.043184 0.017375
v 0.133924 -0.043184 0.000000
v -0.125229 -0.043184 0.000000
v -0.072848 -2.444323 -0.017374
v 0.071771 -2.444323 -0.017374
v -0.166194 -2.397226 -0.017374
v -0.209541 -2.081332 -0.017375
v -0.203202 -2.277456 -0.017375
v 0.208464 -2.081332 -0.017375
v 0.165117 -2.397226 -0.017374
v 0.202126 -2.277456 -0.017375
v -0.180476 -1.749767 -0.017375
v 0.179640 -1.749767 -0.017375
v -0.151708 -1.224859 -0.017375
v -0.125006 -0.733012 -0.017375
v -0.105748 -0.294087 -0.017375
v 0.151104 -1.224859 -0.017375
v 0.138105 -0.733012 -0.017375
v 0.130428 -0.294087 -0.017375
v -0.000538 -2.444498 -0.017374
v -0.000538 -2.397024 -0.017374
v -0.000538 -2.274777 -0.017375
v -0.000538 -2.079937 -0.017375
v -0.000418 -1.749767 -0.017375
v -0.000302 -1.224859 -0.017375
v -0.000178 -0.733012 -0.017375
v -0.000178 -0.294087 -0.017375
v -0.000178 -0.199619 -0.017375
v -0.105748 -0.199619 -0.017375
v 0.172371 -0.199619 -0.017375
v -0.000178 1.399558 -0.017375
v -0.105748 1.399558 -0.017375
v 0.063400 1.399558 -0.017375
v -0.000178 1.855436 -0.017375
v -0.105748 1.855436 -0.017375
v 0.057505 1.855436 -0.017375
v -0.005765 2.157492 -0.012752
v 0.027645 2.012381 -0.017375
v -0.075641 2.130004 -0.008795
v -0.105748 2.048922 -0.013346
v 0.093007 -0.043184 -0.017375
v -0.000178 -0.043184 -0.017375
v -0.105748 -0.043184 -0.017375
vt 0.025134 0.494025
vt 0.025134 0.494025
vt 0.025134 0.494025
vt 0.025134 0.494025
vt 0.025134 0.494025
vt 0.025134 0.494025
vt 0.025134 0.494025
vt 0.025134 0.494025
vt 0.025134 0.494025
vt 0.025134 0.494025
vt 0.025134 0.494025
vt 0.025134 0.494025
vt 0.025134 0.494025
vt 0.025134 0.494025
vt 0.025134 0.494025
vt 0.025134 0.494025
vt 0.025134 0.494025
vt 0.025134 0.494025
vt 0.025134 0.494025
vt 0.025134 0.494025
vt 0.025134 0.494025
vt 0.025134 0.494025
vt 0.025134 0.494025
vt 0.025134 0.494025
vt 0.025134 0.494025
vt 0.025134 0.494025
vt 0.025134 0.494025
vt 0.025134 0.494025
vt 0.025134 0.494025
vt 0.025134 0.494025
vt 0.025134 0.494025
vt 0.025134 0.494025
vt 0.025134 0.494025
vt 0.025134 0.494025
vt 0.025134 0.494025
vt 0.025134 0.494025
vt 0.025134 0.494025
vt 0.025134 0.494025
vt 0.025134 0.494025
vt 0.025134 0.494025
vt 0.025134 0.494025
vt 0.025134 0.494025
vt 0.025134 0.494025
vt 0.025134 0.494025
vt 0.025134 0.494025
vt 0.025134 0.494025
vt 0.025134 0.494025
vt 0.025134 0.494025
vt 0.025134 0.494025
vt 0.025134 0.494025
vt 0.025134 0.494025
vt 0.025134 0.494025
vt 0.025134 0.494025
vt 0.025134 0.494025
vt 0.025134 0.494025
vt 0.025134 0.494025
vt 0.025134 0.494025
vt 0.025134 0.494025
vt 0.025134 0.494025
vt 0.025134 0.494025
vt 0.025134 0.494025
vt 0.025134 0.494025
vt 0.025134 0.494025
vt 0.025134 0.494025
vt 0.025134 0.494025
vt 0.025134 0.494025
vt 0.025134 0.494025
vt 0.025134 0.494025
vt 0.025134 0.494025
vt 0.025134 0.494025
vt 0.025134 0.494025
vt 0.025134 0.494025
vt 0.025134 0.494025
vt 0.025134 0.494025
vt 0.025134 0.494025
vt 0.025134 0.494025
vt 0.025134 0.494025
vt 0.025134 0.494025
vt 0.025134 0.494025
vt 0.025134 0.494025
vt 0.025134 0.494025
vt 0.025134 0.494025
vt 0.025134 0.494025
vt 0.025134 0.494025
vt 0.025134 0.494025
vt 0.025134 0.494025
vt 0.025134 0.494025
vt 0.025134 0.494025
vt 0.025134 0.494025
vt 0.025134 0.494025
vt 0.025134 0.494025
vt 0.025134 0.494025
vt 0.025134 0.494025
vt 0.025134 0.494025
vt 0.025134 0.494025
vt 0.025134 0.494025
vt 0.025134 0.494025
vt 0.025134 0.494025
vt 0.025134 0.494025
vt 0.025134 0.494025
vt 0.025134 0.494025
vt 0.025134 0.494025
vt 0.025134 0.494025
vt 0.025134 0.494025
vt 0.025134 0.494025
vt 0.025134 0.494025
vt 0.025134 0.494025
vt 0.025134 0.494025
vt 0.025134 0.494025
vn -0.0000 0.0000 1.0000
vn -0.1575 -0.1090 0.9815
vn -0.0356 -0.1635 0.9859
vn 0.0000 -0.1540 0.9881
vn 0.1731 -0.1137 0.9783
vn 0.2497 -0.0240 0.9680
vn 0.2881 0.0187 0.9574
vn -0.2571 0.0187 0.9662
vn -0.2525 0.0159 0.9675
vn -0.2879 0.0171 0.9575
vn -0.3301 0.0166 0.9438
vn -0.3450 0.0080 0.9386
vn 0.3945 0.0093 0.9188
vn 0.3116 -0.0609 0.9483
vn 0.3340 0.0147 0.9424
vn 0.2962 0.0214 0.9549
vn -0.2226 -0.0226 0.9747
vn 0.0384 -0.1656 0.9854
vn -0.3562 0.0000 0.9344
vn -0.6548 0.0148 0.7557
vn -0.6656 0.0000 0.7463
vn -0.3411 0.0080 0.9400
vn -0.6373 0.0032 0.7706
vn -0.0184 0.0033 0.9998
vn -0.0134 0.0076 0.9999
vn -0.0175 0.0212 0.9996
vn -0.0686 0.0782 0.9946
vn -0.3178 0.0223 0.9479
vn -0.0395 0.0070 0.9992
vn -0.1709 0.0826 0.9818
vn 0.3277 0.1680 0.9297
vn 0.5086 0.1227 0.8522
vn 0.5330 0.1492 0.8328
vn 0.0692 0.1563 0.9853
vn 0.4587 0.0592 0.8866
vn 0.4541 0.0529 0.8894
vn 0.4059 0.0083 0.9139
vn 0.4055 0.0083 0.9140
vn 0.3880 0.0861 0.9176
vn 0.3864 0.1133 0.9153
vn 0.3902 -0.0977 0.9155
vn 0.4917 -0.0042 0.8708
vn 0.2092 -0.2206 0.9527
vn 0.6325 0.0281 0.7740
vn 0.6984 0.0194 0.7154
vn 0.5691 0.0418 0.8212
vn -0.4401 -0.0028 0.8980
vn -0.3568 -0.0874 0.9301
vn -0.2016 -0.2069 0.9574
vn 0.0620 -0.2876 0.9558
vn -0.0000 -0.3039 0.9527
vn -0.0636 -0.2820 0.9573
vn 0.6336 -0.1667 0.7555
vn 0.4589 -0.0315 0.8879
vn 0.4665 -0.0583 0.8826
vn -0.6038 0.0332 0.7964
vn -0.5001 0.0369 0.8652
vn -0.5494 0.0325 0.8349
vn -0.0737 0.1274 0.9891
vn -0.0000 -0.0000 -1.0000
vn 0.0000 -0.1540 -0.9881
vn -0.0356 -0.1635 -0.9859
vn -0.1575 -0.1090 -0.9815
vn 0.2497 -0.0240 -0.9680
vn 0.1731 -0.1137 -0.9783
vn 0.2881 0.0187 -0.9574
vn -0.2525 0.0159 -0.9675
vn -0.2571 0.0187 -0.9662
vn -0.2879 0.0171 -0.9575
vn -0.3301 0.0166 -0.9438
vn -0.3450 0.0080 -0.9386
vn 0.3945 0.0093 -0.9188
vn 0.3116 -0.0609 -0.9483
vn 0.3340 0.0147 -0.9424
vn 0.2962 0.0214 -0.9549
vn -0.2226 -0.0226 -0.9747
vn 0.0384 -0.1656 -0.9854
vn -0.3562 -0.0000 -0.9344
vn -0.6548 0.0148 -0.7557
vn -0.6656 -0.0000 -0.7463
vn -0.6373 0.0032 -0.7706
vn -0.3411 0.0080 -0.9400
vn -0.0134 0.0076 -0.9999
vn -0.0184 0.0033 -0.9998
vn -0.3178 0.0223 -0.9479
vn -0.0686 0.0782 -0.9946
vn -0.0175 0.0212 -0.9996
vn -0.0395 0.0070 -0.9992
vn -0.1709 0.0826 -0.9818
vn 0.3277 0.1680 -0.9297
vn 0.0692 0.1563 -0.9853
vn 0.5330 0.1492 -0.8328
vn 0.5086 0.1227 -0.8522
vn 0.4587 0.0592 -0.8866
vn 0.4541 0.0529 -0.8894
vn 0.4059 0.0083 -0.9139
vn 0.4055 0.0083 -0.9140
vn 0.3880 0.0861 -0.9176
vn 0.3864 0.1133 -0.9153
vn 0.4917 -0.0042 -0.8708
vn 0.3902 -0.0977 -0.9155
vn 0.2092 -0.2206 -0.9527
vn 0.6984 0.0194 -0.7154
vn 0.6325 0.0281 -0.7740
vn 0.5691 0.0418 -0.8212
vn -0.3568 -0.0874 -0.9301
vn -0.4401 -0.0028 -0.8980
vn -0.2016 -0.2069 -0.9574
vn 0.0620 -0.2876 -0.9558
vn -0.0000 -0.3039 -0.9527
vn -0.0636 -0.2820 -0.9573
vn 0.4665 -0.0583 -0.8826
vn 0.4589 -0.0315 -0.8879
vn 0.6336 -0.1667 -0.7555
vn -0.6038 0.0332 -0.7964
vn -0.5001 0.0369 -0.8652
vn -0.5494 0.0325 -0.8349
vn -0.0737 0.1274 -0.9891
usemtl Solid.187
s 1
f 18/1/1 3/2/2 1/3/3 17/4/4
f 18/1/1 7/5/5 8/6/6 19/7/1
f 19/7/1 8/6/6 6/8/7 20/9/1
f 20/9/1 21/10/1 9/11/8 4/12/9
f 21/10/1 22/13/1 11/14/10 9/11/8
f 22/13/1 23/15/1 12/16/11 11/14/10
f 23/15/1 24/17/1 13/18/12 12/16/11
f 15/19/13 16/20/14 24/17/1 23/15/1
f 14/21/15 15/19/13 23/15/1 22/13/1
f 10/22/16 14/21/15 22/13/1 21/10/1
f 6/8/7 10/22/16 21/10/1 20/9/1
f 5/23/17 19/7/1 20/9/1 4/12/9
f 3/2/2 18/1/1 19/7/1 5/23/17
f 7/5/5 18/1/1 17/4/4 2/24/18
f 13/18/12 24/17/1 25/25/1 26/26/19
f 38/27/20 13/18/12 26/26/19 53/28/21
f 24/17/1 16/20/14 27/29/1 25/25/1
f 55/30/21 29/31/19 32/32/22 57/33/23
f 67/34/19 66/35/1 28/36/1 29/31/19
f 69/37/21 67/34/19 29/31/19 55/30/21
f 66/35/1 65/38/1 30/39/1 28/36/1
f 28/36/1 30/39/1 33/40/24 31/41/25
f 29/31/19 28/36/1 31/41/25 32/32/22
f 32/32/22 31/41/25 34/42/26 61/43/27 62/44/28
f 31/41/25 33/40/24 35/45/29 34/42/26
f 57/33/23 32/32/22 62/44/28 63/46/30
f 34/42/31 35/45/32 60/47/33 59/48/34
f 33/40/35 58/49/36 60/47/33 35/45/32
f 30/39/37 56/50/38 58/49/36 33/40/35
f 65/38/39 68/51/40 56/50/38 30/39/37
f 6/8/7 8/6/6 51/52/41 52/53/42
f 8/6/6 7/5/5 48/54/43 51/52/41
f 15/19/13 14/21/15 47/55/44 50/56/45
f 14/21/15 10/22/16 46/57/46 47/55/44
f 10/22/16 6/8/7 52/53/42 46/57/46
f 5/23/17 4/12/9 49/58/47 45/59/48
f 3/2/2 5/23/17 45/59/48 44/60/49
f 7/5/5 2/24/18 43/61/50 48/54/43
f 2/24/18 17/4/4 42/62/51 43/61/50
f 17/4/4 1/3/3 41/63/52 42/62/51
f 1/3/3 3/2/2 44/60/49 41/63/52
f 16/20/14 40/64/53 54/65/54 27/29/55
f 16/20/14 15/19/13 50/56/45 40/64/53
f 12/16/11 13/18/12 38/27/20 39/66/56
f 4/12/9 9/11/8 37/67/57 49/58/47
f 9/11/8 11/14/10 36/68/58 37/67/57
f 11/14/10 12/16/11 39/66/56 36/68/58
f 63/46/30 62/44/28 61/43/27 64/69/59
f 61/43/27 34/42/31 59/48/34 64/69/59
f 27/29/55 54/65/54 68/51/40 65/38/39
f 25/25/1 27/29/1 65/38/1 66/35/1
f 53/28/21 26/26/19 67/34/19 69/37/21
f 26/26/19 25/25/1 66/35/1 67/34/19
f 87/70/60 86/71/61 70/72/62 72/73/63
f 87/70/60 88/74/60 77/75/64 76/76/65
f 88/74/60 89/77/60 75/78/66 77/75/64
f 89/77/60 73/79/67 78/80/68 90/81/60
f 90/81/60 78/80/68 80/82/69 91/83/60
f 91/83/60 80/82/69 81/84/70 92/85/60
f 92/85/60 81/84/70 82/86/71 93/87/60
f 84/88/72 92/85/60 93/87/60 85/89/73
f 83/90/74 91/83/60 92/85/60 84/88/72
f 79/91/75 90/81/60 91/83/60 83/90/74
f 75/78/66 89/77/60 90/81/60 79/91/75
f 74/92/76 73/79/67 89/77/60 88/74/60
f 72/73/63 74/92/76 88/74/60 87/70/60
f 76/76/65 71/93/77 86/71/61 87/70/60
f 82/86/71 95/94/78 94/95/60 93/87/60
f 38/27/79 53/28/80 95/94/78 82/86/71
f 93/87/60 94/95/60 96/96/60 85/89/73
f 55/30/80 57/33/81 101/97/82 98/98/78
f 109/99/78 98/98/78 97/100/60 108/101/60
f 69/37/80 55/30/80 98/98/78 109/99/78
f 108/101/60 97/100/60 99/102/60 107/103/60
f 97/100/60 100/104/83 102/105/84 99/102/60
f 98/98/78 101/97/82 100/104/83 97/100/60
f 101/97/82 106/106/85 105/107/86 103/108/87 100/104/83
f 100/104/83 103/108/87 104/109/88 102/105/84
f 57/33/81 63/46/89 106/106/85 101/97/82
f 103/108/90 59/48/91 60/47/92 104/109/93
f 102/105/94 104/109/93 60/47/92 58/49/95
f 99/102/96 102/105/94 58/49/95 56/50/97
f 107/103/98 99/102/96 56/50/97 68/51/99
f 75/78/66 52/53/100 51/52/101 77/75/64
f 77/75/64 51/52/101 48/54/102 76/76/65
f 84/88/72 50/56/103 47/55/104 83/90/74
f 83/90/74 47/55/104 46/57/105 79/91/75
f 79/91/75 46/57/105 52/53/100 75/78/66
f 74/92/76 45/59/106 49/58/107 73/79/67
f 72/73/63 44/60/108 45/59/106 74/92/76
f 76/76/65 48/54/102 43/61/109 71/93/77
f 71/93/77 43/61/109 42/62/110 86/71/61
f 86/71/61 42/62/110 41/63/111 70/72/62
f 70/72/62 41/63/111 44/60/108 72/73/63
f 85/89/73 96/96/112 54/65/113 40/64/114
f 85/89/73 40/64/114 50/56/103 84/88/72
f 81/84/70 39/66/115 38/27/79 82/86/71
f 73/79/67 49/58/107 37/67/116 78/80/68
f 78/80/68 37/67/116 36/68/117 80/82/69
f 80/82/69 36/68/117 39/66/115 81/84/70
f 63/46/89 64/69/118 105/107/86 106/106/85
f 105/107/86 64/69/118 59/48/91 103/108/90
f 96/96/112 107/103/98 68/51/99 54/65/113
f 94/95/60 108/101/60 107/103/60 96/96/60
f 53/28/80 69/37/80 109/99/78 95/94/78
f 95/94/78 109/99/78 108/101/60 94/95/60
